<svg xmlns="http://www.w3.org/2000/svg" viewBox="0 0 112 33"><defs><style>.cls-1,.cls-2{fill:#fff;}.cls-2{stroke:#fff;stroke-miterlimit:10;stroke-width:0.2px;}</style></defs><title>apple</title><g id="Layer_2" data-name="Layer 2"><g id="Layer_1-2" data-name="Layer 1"><g id="main_colored" data-name="main colored"><g id="footer"><path d="M4.15,32.5A3.64,3.64,0,0,1,.5,28.88V4.13A3.64,3.64,0,0,1,4.15.5h103.7a3.64,3.64,0,0,1,3.65,3.63V28.88a3.64,3.64,0,0,1-3.65,3.63Z"/><path class="cls-1" d="M107.85,1A3.14,3.14,0,0,1,111,4.13V28.88A3.14,3.14,0,0,1,107.85,32H4.15A3.14,3.14,0,0,1,1,28.88V4.13A3.14,3.14,0,0,1,4.15,1h103.7m0-1H4.15A4.15,4.15,0,0,0,0,4.13V28.88A4.15,4.15,0,0,0,4.15,33h103.7A4.15,4.15,0,0,0,112,28.88V4.13A4.15,4.15,0,0,0,107.85,0Z"/><path class="cls-2" d="M36,11h-.6V9.37h.48a2.32,2.32,0,0,0,.62-1.86V5.11h3.24V9.37h.54V11h-.6V10H36Zm1.12-3.49a3.2,3.2,0,0,1-.46,1.86h2.46V5.71h-2Z"/><path class="cls-2" d="M45.13,9.34a2.52,2.52,0,0,1-3.56,0,2.48,2.48,0,0,1-.72-1.8,2.48,2.48,0,0,1,.72-1.8,2.51,2.51,0,0,1,3.56,0,2.48,2.48,0,0,1,.72,1.8A2.49,2.49,0,0,1,45.13,9.34ZM42,8.93a1.87,1.87,0,0,0,2.64,0,1.9,1.9,0,0,0,.54-1.39,1.9,1.9,0,0,0-.54-1.39,1.87,1.87,0,0,0-2.64,0,1.9,1.9,0,0,0-.54,1.39A1.9,1.9,0,0,0,42,8.93Z"/><path class="cls-2" d="M49,10.08a2.48,2.48,0,0,1-2.52-2.54A2.48,2.48,0,0,1,49,5a2.25,2.25,0,0,1,1.79.79l-.44.42A1.64,1.64,0,0,0,49,5.6a1.84,1.84,0,0,0-1.34.54,1.88,1.88,0,0,0-.55,1.4,1.88,1.88,0,0,0,.55,1.4A1.84,1.84,0,0,0,49,9.48a1.92,1.92,0,0,0,1.49-.71l.43.43a2.37,2.37,0,0,1-.84.63A2.55,2.55,0,0,1,49,10.08Z"/><path class="cls-2" d="M53.44,10h-.62V5.71H51.46v-.6H54.8v.6H53.44Z"/><path class="cls-2" d="M59.08,5.11l-1.84,4.1a1.22,1.22,0,0,1-1.13.87,1.25,1.25,0,0,1-.48-.11l.16-.58a.65.65,0,0,0,.33.09.57.57,0,0,0,.34-.08.76.76,0,0,0,.22-.31l.18-.39L55.22,5.11h.73l1.2,2.79h0l1.17-2.79Z"/><path class="cls-2" d="M59.79,10V5.11h3.52V10h-.62V5.71H60.42V10Z"/><path class="cls-2" d="M64.42,10V5.11H65V7.19h2.43V5.11h.62V10h-.62V7.78H65V10Z"/><path class="cls-2" d="M73.19,9.34a2.52,2.52,0,0,1-3.56,0,2.48,2.48,0,0,1-.72-1.8,2.48,2.48,0,0,1,.72-1.8,2.51,2.51,0,0,1,3.56,0,2.48,2.48,0,0,1,.72,1.8A2.49,2.49,0,0,1,73.19,9.34Zm-3.1-.41a1.87,1.87,0,0,0,2.64,0,1.9,1.9,0,0,0,.54-1.39,1.9,1.9,0,0,0-.54-1.39,1.87,1.87,0,0,0-2.64,0,1.9,1.9,0,0,0-.54,1.39A1.9,1.9,0,0,0,70.08,8.93Z"/><path class="cls-2" d="M76.46,10V5.11h1.76a1.43,1.43,0,0,1,1,.38,1.22,1.22,0,0,1,.42.95,1.06,1.06,0,0,1-.18.61,1.13,1.13,0,0,1-.48.4v0a1.23,1.23,0,0,1,.59.42,1.1,1.1,0,0,1,.23.69,1.28,1.28,0,0,1-.44,1,1.5,1.5,0,0,1-1,.39Zm.62-2.78h1.13A.73.73,0,0,0,78.78,7a.72.72,0,0,0,0-1,.7.7,0,0,0-.55-.23H77.08Zm0,2.18h1.26a.75.75,0,0,0,.58-.25.81.81,0,0,0,.22-.55.82.82,0,0,0-.84-.79H77.08Z"/><path class="cls-1" d="M22.08,16.63a5,5,0,0,1,2.37-4.17,5.09,5.09,0,0,0-4-2.17c-1.69-.18-3.32,1-4.18,1s-2.2-1-3.63-1a5.34,5.34,0,0,0-4.49,2.74c-1.94,3.36-.49,8.31,1.37,11,.93,1.33,2,2.82,3.44,2.77s1.91-.89,3.6-.89,2.15.89,3.61.85,2.44-1.34,3.34-2.68A10.94,10.94,0,0,0,25,21.05a4.8,4.8,0,0,1-2.93-4.42"/><path class="cls-1" d="M19.34,8.51A4.89,4.89,0,0,0,20.46,5a5,5,0,0,0-3.22,1.67A4.66,4.66,0,0,0,16.09,10a4.12,4.12,0,0,0,3.25-1.54"/><path class="cls-1" d="M42.63,26.58H40.69l-1.07-3.35H35.91l-1,3.35H33l3.67-11.41h2.27ZM39.3,21.82l-1-3q-.15-.46-.58-2.15h0q-.17.73-.54,2.15l-.95,3Z"/><path class="cls-1" d="M52.07,22.37a4.66,4.66,0,0,1-1.14,3.32,3.35,3.35,0,0,1-2.54,1.08A2.54,2.54,0,0,1,46,25.6v4.32H44.21V21.06c0-.88,0-1.78-.07-2.71h1.61l.1,1.3h0a3.25,3.25,0,0,1,5.21-.32,4.55,4.55,0,0,1,1,3m-1.86.07a3.39,3.39,0,0,0-.54-2,1.87,1.87,0,0,0-1.59-.81,1.9,1.9,0,0,0-1.23.45,2.08,2.08,0,0,0-.72,1.18,2.39,2.39,0,0,0-.08.56v1.37a2.21,2.21,0,0,0,.55,1.52,1.82,1.82,0,0,0,1.43.62,1.87,1.87,0,0,0,1.61-.8,3.49,3.49,0,0,0,.58-2.1"/><path class="cls-1" d="M61.53,22.37a4.66,4.66,0,0,1-1.14,3.32,3.35,3.35,0,0,1-2.54,1.08A2.54,2.54,0,0,1,55.5,25.6v4.32H53.67V21.06c0-.88,0-1.78-.07-2.71h1.61l.1,1.3h0a3.25,3.25,0,0,1,5.21-.32,4.56,4.56,0,0,1,1,3m-1.86.07a3.4,3.4,0,0,0-.54-2,1.87,1.87,0,0,0-1.59-.81,1.9,1.9,0,0,0-1.23.45,2.08,2.08,0,0,0-.72,1.18,2.42,2.42,0,0,0-.09.56v1.37a2.21,2.21,0,0,0,.55,1.52,1.83,1.83,0,0,0,1.43.62,1.87,1.87,0,0,0,1.61-.8,3.5,3.5,0,0,0,.58-2.1"/><path class="cls-1" d="M72.11,23.38a3,3,0,0,1-1,2.37,4.5,4.5,0,0,1-3.11,1A5.43,5.43,0,0,1,65,26l.42-1.52a5.09,5.09,0,0,0,2.64.71,2.49,2.49,0,0,0,1.61-.47,1.52,1.52,0,0,0,.58-1.24,1.59,1.59,0,0,0-.47-1.17,4.41,4.41,0,0,0-1.57-.88q-3-1.12-3-3.27a2.88,2.88,0,0,1,1.06-2.3,4.18,4.18,0,0,1,2.8-.9,5.54,5.54,0,0,1,2.59.54L71.23,17A4.53,4.53,0,0,0,69,16.51a2.23,2.23,0,0,0-1.51.48,1.35,1.35,0,0,0-.46,1,1.4,1.4,0,0,0,.53,1.12,5.92,5.92,0,0,0,1.66.88,5.61,5.61,0,0,1,2.17,1.39,2.89,2.89,0,0,1,.7,2"/><path class="cls-1" d="M78.17,19.72h-2v4q0,1.52,1.07,1.52a3.25,3.25,0,0,0,.81-.08l.05,1.39a4.13,4.13,0,0,1-1.42.2A2.19,2.19,0,0,1,75,26.09a3.24,3.24,0,0,1-.61-2.22V19.72h-1.2V18.35h1.2V16.84l1.8-.54v2h2Z"/><path class="cls-1" d="M87.24,22.4a4.51,4.51,0,0,1-1.08,3.11,3.86,3.86,0,0,1-3,1.25,3.68,3.68,0,0,1-2.89-1.2,4.38,4.38,0,0,1-1.08-3,4.48,4.48,0,0,1,1.11-3.13,3.84,3.84,0,0,1,3-1.22,3.76,3.76,0,0,1,2.91,1.2,4.32,4.32,0,0,1,1,3m-1.89,0a3.68,3.68,0,0,0-.49-1.94,1.81,1.81,0,0,0-1.64-1,1.83,1.83,0,0,0-1.68,1,3.73,3.73,0,0,0-.49,2,3.66,3.66,0,0,0,.49,1.94,1.88,1.88,0,0,0,3.31,0,3.72,3.72,0,0,0,.5-2Z"/><path class="cls-1" d="M93.19,20a3.15,3.15,0,0,0-.58-.05,1.73,1.73,0,0,0-1.49.73,2.74,2.74,0,0,0-.46,1.63v4.32H88.84V20.94q0-1.42-.05-2.59h1.59l.07,1.58h.05a2.82,2.82,0,0,1,.91-1.3,2.2,2.2,0,0,1,1.32-.44,3,3,0,0,1,.46,0Z"/><path class="cls-1" d="M101.37,22.08a4.29,4.29,0,0,1-.07.83H95.82a2.38,2.38,0,0,0,.8,1.86,2.71,2.71,0,0,0,1.79.58,6,6,0,0,0,2.22-.39l.29,1.27a6.86,6.86,0,0,1-2.76.51,4,4,0,0,1-3-1.12,4.16,4.16,0,0,1-1.09-3,4.71,4.71,0,0,1,1-3.1,3.51,3.51,0,0,1,2.88-1.32,3.07,3.07,0,0,1,2.69,1.32,4.45,4.45,0,0,1,.72,2.59m-1.74-.47a2.47,2.47,0,0,0-.35-1.41,1.6,1.6,0,0,0-1.46-.76,1.73,1.73,0,0,0-1.45.74,2.74,2.74,0,0,0-.54,1.42Z"/></g></g></g></g></svg>