<svg xmlns="http://www.w3.org/2000/svg" viewBox="0 0 24 23"><defs><style>.cls-1{fill:#fff;}</style></defs><title>copy-logo</title><g id="Layer_2" data-name="Layer 2"><g id="Layer_1-2" data-name="Layer 1"><g id="main_colored" data-name="main colored"><g id="footer"><path class="cls-1" d="M24,2h0a2,2,0,0,0-2-2H1.77A1.73,1.73,0,0,0,0,1.86C0,2,0,2,.06,2Z"/><path class="cls-1" d="M11,21H3a1,1,0,0,1-1-1V5H0V20a3,3,0,0,0,3,3h8Z"/><path class="cls-1" d="M21,21H13v2h8a3,3,0,0,0,3-3V5H22V20A1,1,0,0,1,21,21Z"/></g></g></g></g></svg>