<svg xmlns="http://www.w3.org/2000/svg" xmlns:xlink="http://www.w3.org/1999/xlink" viewBox="0 0 112 33"><defs><style>.cls-1,.cls-8,.cls-9{fill:#fff;}.cls-2{fill:url(#linear-gradient);}.cls-3{fill:url(#linear-gradient-2);}.cls-4{fill:url(#linear-gradient-3);}.cls-5{fill:url(#linear-gradient-4);}.cls-6{opacity:0.2;}.cls-6,.cls-7,.cls-8{isolation:isolate;}.cls-7{opacity:0.12;}.cls-8{opacity:0.25;}.cls-9{stroke:#fff;stroke-miterlimit:10;stroke-width:0.2px;}</style><linearGradient id="linear-gradient" x1="18.09" y1="-5543.23" x2="4.16" y2="-5557.15" gradientTransform="matrix(1, 0, 0, -1, 0, -5536)" gradientUnits="userSpaceOnUse"><stop offset="0" stop-color="#00a0ff"/><stop offset="0.01" stop-color="#00a1ff"/><stop offset="0.26" stop-color="#00beff"/><stop offset="0.51" stop-color="#00d2ff"/><stop offset="0.76" stop-color="#00dfff"/><stop offset="1" stop-color="#00e3ff"/></linearGradient><linearGradient id="linear-gradient-2" x1="28.07" y1="-5552.59" x2="8" y2="-5552.59" gradientTransform="matrix(1, 0, 0, -1, 0, -5536)" gradientUnits="userSpaceOnUse"><stop offset="0" stop-color="#ffe000"/><stop offset="0.41" stop-color="#ffbd00"/><stop offset="0.78" stop-color="orange"/><stop offset="1" stop-color="#ff9c00"/></linearGradient><linearGradient id="linear-gradient-3" x1="20.6" y1="-5554.5" x2="1.72" y2="-5573.38" gradientTransform="matrix(1, 0, 0, -1, 0, -5536)" gradientUnits="userSpaceOnUse"><stop offset="0" stop-color="#ff3a44"/><stop offset="1" stop-color="#c31162"/></linearGradient><linearGradient id="linear-gradient-4" x1="6.05" y1="-5536.15" x2="14.49" y2="-5544.58" gradientTransform="matrix(1, 0, 0, -1, 0, -5536)" gradientUnits="userSpaceOnUse"><stop offset="0" stop-color="#32a071"/><stop offset="0.07" stop-color="#2da771"/><stop offset="0.48" stop-color="#15cf74"/><stop offset="0.8" stop-color="#06e775"/><stop offset="1" stop-color="#00f076"/></linearGradient></defs><title>google</title><g id="Layer_2" data-name="Layer 2"><g id="Layer_1-2" data-name="Layer 1"><g id="main_colored" data-name="main colored"><g id="footer"><path d="M4.15,32.5A3.64,3.64,0,0,1,.5,28.88V4.13A3.64,3.64,0,0,1,4.15.5h103.7a3.64,3.64,0,0,1,3.65,3.63V28.88a3.64,3.64,0,0,1-3.65,3.63Z"/><path class="cls-1" d="M107.85,1A3.14,3.14,0,0,1,111,4.13V28.88A3.14,3.14,0,0,1,107.85,32H4.15A3.14,3.14,0,0,1,1,28.88V4.13A3.14,3.14,0,0,1,4.15,1h103.7m0-1H4.15A4.15,4.15,0,0,0,0,4.13V28.88A4.15,4.15,0,0,0,4.15,33h103.7A4.15,4.15,0,0,0,112,28.88V4.13A4.15,4.15,0,0,0,107.85,0Z"/><path class="cls-1" d="M56.53,18a3.53,3.53,0,1,0,3.54,3.53A3.48,3.48,0,0,0,56.53,18Zm0,5.67a2.14,2.14,0,1,1,2-2.14A2,2,0,0,1,56.53,23.71ZM48.8,18a3.53,3.53,0,1,0,3.54,3.53A3.48,3.48,0,0,0,48.8,18Zm0,5.67a2.14,2.14,0,1,1,2-2.14A2,2,0,0,1,48.8,23.71Zm-9.19-4.58v1.5h3.58a3.12,3.12,0,0,1-.82,1.88,3.67,3.67,0,0,1-2.77,1.1,4,4,0,0,1,0-8,3.82,3.82,0,0,1,2.7,1.07l1.06-1.06a5.22,5.22,0,0,0-3.76-1.51,5.48,5.48,0,1,0,0,11,5,5,0,0,0,3.82-1.54,5,5,0,0,0,1.3-3.5,4.87,4.87,0,0,0-.08-.94ZM77.2,20.29a3.28,3.28,0,0,0-3-2.25,3.35,3.35,0,0,0-3.33,3.53,3.45,3.45,0,0,0,3.5,3.53,3.51,3.51,0,0,0,2.94-1.56l-1.2-.8a2,2,0,0,1-1.74,1,1.79,1.79,0,0,1-1.71-1.07l4.72-2Zm-4.81,1.18a1.94,1.94,0,0,1,1.84-2.06,1.37,1.37,0,0,1,1.31.75Zm-3.84,3.42H70.1V14.52H68.55ZM66,18.83H66A2.45,2.45,0,0,0,64.1,18a3.53,3.53,0,0,0,0,7.06A2.41,2.41,0,0,0,66,24.3H66v.51c0,1.35-.72,2.07-1.88,2.07a2,2,0,0,1-1.78-1.26L61,26.19a3.36,3.36,0,0,0,3.13,2.09c1.82,0,3.35-1.07,3.35-3.68V18.26H66Zm-1.78,4.88a2.15,2.15,0,0,1,0-4.28,2,2,0,0,1,1.88,2.15A2,2,0,0,1,64.23,23.71Zm20.23-9.2H80.75V24.89H82.3V21h2.16a3.23,3.23,0,1,0,0-6.44Zm0,5H82.3V16h2.2a1.78,1.78,0,1,1,0,3.56ZM94.07,18a2.91,2.91,0,0,0-2.76,1.59l1.37.57a1.47,1.47,0,0,1,1.41-.76,1.49,1.49,0,0,1,1.63,1.33v.11a3.42,3.42,0,0,0-1.61-.4c-1.48,0-3,.81-3,2.34a2.4,2.4,0,0,0,2.58,2.28,2.18,2.18,0,0,0,2-1h.05v.8h1.49v-4A2.85,2.85,0,0,0,94.07,18Zm-.19,5.68c-.51,0-1.21-.25-1.21-.88,0-.8.88-1.11,1.64-1.11a2.76,2.76,0,0,1,1.41.35A1.88,1.88,0,0,1,93.88,23.71Zm8.78-5.46-1.77,4.5h-.05L99,18.25H97.32l2.76,6.28L98.51,28h1.61l4.26-9.78ZM88.72,24.89h1.55V14.52H88.72Z"/><path class="cls-2" d="M8.66,6.25a1.66,1.66,0,0,0-.38,1.17V25.77a1.66,1.66,0,0,0,.38,1.17l.06.06L19,16.71v-.24L8.72,6.19Z"/><path class="cls-3" d="M22.42,20.14,19,16.71v-.24L22.42,13l.08,0,4.06,2.31a1.26,1.26,0,0,1,0,2.4L22.5,20.1Z"/><path class="cls-4" d="M22.5,20.1,19,16.59,8.66,26.93a1.35,1.35,0,0,0,1.72.05L22.5,20.1"/><path class="cls-5" d="M22.5,13.09,10.38,6.2a1.35,1.35,0,0,0-1.72.05L19,16.59Z"/><path class="cls-6" d="M22.42,20l-12,6.84a1.38,1.38,0,0,1-1.66,0h0l-.06.06h0l.06.06h0a1.38,1.38,0,0,0,1.66,0L22.5,20.1Z"/><path class="cls-7" d="M8.66,26.81a1.66,1.66,0,0,1-.38-1.17v.12a1.66,1.66,0,0,0,.38,1.17l.06-.06Z"/><path class="cls-7" d="M26.56,17.67,22.42,20l.08.08,4.06-2.31a1.46,1.46,0,0,0,.87-1.2h0A1.55,1.55,0,0,1,26.56,17.67Z"/><path class="cls-8" d="M10.38,6.32l16.18,9.19a1.54,1.54,0,0,1,.87,1.08h0a1.45,1.45,0,0,0-.87-1.2L10.38,6.2c-1.16-.66-2.11-.11-2.11,1.22v.12C8.27,6.21,9.22,5.67,10.38,6.32Z"/><path class="cls-9" d="M36,11h-.6V9.37h.48a2.32,2.32,0,0,0,.62-1.86V5.11h3.24V9.37h.54V11h-.6V10H36Zm1.12-3.49a3.2,3.2,0,0,1-.46,1.86h2.46V5.71h-2Z"/><path class="cls-9" d="M45.13,9.34a2.52,2.52,0,0,1-3.56,0,2.48,2.48,0,0,1-.72-1.8,2.48,2.48,0,0,1,.72-1.8,2.51,2.51,0,0,1,3.56,0,2.48,2.48,0,0,1,.72,1.8A2.49,2.49,0,0,1,45.13,9.34ZM42,8.93a1.87,1.87,0,0,0,2.64,0,1.9,1.9,0,0,0,.54-1.39,1.9,1.9,0,0,0-.54-1.39,1.87,1.87,0,0,0-2.64,0,1.9,1.9,0,0,0-.54,1.39A1.9,1.9,0,0,0,42,8.93Z"/><path class="cls-9" d="M49,10.08a2.48,2.48,0,0,1-2.52-2.54A2.48,2.48,0,0,1,49,5a2.25,2.25,0,0,1,1.79.79l-.44.42A1.64,1.64,0,0,0,49,5.6a1.84,1.84,0,0,0-1.34.54,1.88,1.88,0,0,0-.55,1.4,1.88,1.88,0,0,0,.55,1.4A1.84,1.84,0,0,0,49,9.48a1.92,1.92,0,0,0,1.49-.71l.43.43a2.37,2.37,0,0,1-.84.63A2.55,2.55,0,0,1,49,10.08Z"/><path class="cls-9" d="M53.44,10h-.62V5.71H51.46v-.6H54.8v.6H53.44Z"/><path class="cls-9" d="M59.08,5.11l-1.84,4.1a1.22,1.22,0,0,1-1.13.87,1.25,1.25,0,0,1-.48-.11l.16-.58a.65.65,0,0,0,.33.09.57.57,0,0,0,.34-.08.76.76,0,0,0,.22-.31l.18-.39L55.22,5.11h.73l1.2,2.79h0l1.17-2.79Z"/><path class="cls-9" d="M59.79,10V5.11h3.52V10h-.62V5.71H60.42V10Z"/><path class="cls-9" d="M64.42,10V5.11H65V7.19h2.43V5.11h.62V10h-.62V7.78H65V10Z"/><path class="cls-9" d="M73.19,9.34a2.52,2.52,0,0,1-3.56,0,2.48,2.48,0,0,1-.72-1.8,2.48,2.48,0,0,1,.72-1.8,2.51,2.51,0,0,1,3.56,0,2.48,2.48,0,0,1,.72,1.8A2.49,2.49,0,0,1,73.19,9.34Zm-3.1-.41a1.87,1.87,0,0,0,2.64,0,1.9,1.9,0,0,0,.54-1.39,1.9,1.9,0,0,0-.54-1.39,1.87,1.87,0,0,0-2.64,0,1.9,1.9,0,0,0-.54,1.39A1.9,1.9,0,0,0,70.08,8.93Z"/><path class="cls-9" d="M76.46,10V5.11h1.76a1.43,1.43,0,0,1,1,.38,1.22,1.22,0,0,1,.42.95,1.06,1.06,0,0,1-.18.61,1.13,1.13,0,0,1-.48.4v0a1.23,1.23,0,0,1,.59.42,1.1,1.1,0,0,1,.23.69,1.28,1.28,0,0,1-.44,1,1.5,1.5,0,0,1-1,.39Zm.62-2.78h1.13A.73.73,0,0,0,78.78,7a.72.72,0,0,0,0-1,.7.7,0,0,0-.55-.23H77.08Zm0,2.18h1.26a.75.75,0,0,0,.58-.25.81.81,0,0,0,.22-.55.82.82,0,0,0-.84-.79H77.08Z"/></g></g></g></g></svg>