<svg xmlns="http://www.w3.org/2000/svg" viewBox="0 0 279.83 42"><defs><style>.cls-1{fill:#fff;}</style></defs><title>logo large</title><g id="Layer_2" data-name="Layer 2"><g id="Layer_1-2" data-name="Layer 1"><g id="logo"><path class="cls-1" d="M69.41,39.75a10,10,0,0,1-3.59-.56l-.17-.06V24.34a9.61,9.61,0,0,1,3.95-.9c4.56,0,7,4.18,7,8.11,0,6.78-3.92,8.2-7.21,8.2m8-15.65a10.31,10.31,0,0,0-6.5-2.27A11.64,11.64,0,0,0,65.65,23V11.2H61v30h4.54a21,21,0,0,0,3.76.27,13.63,13.63,0,0,0,7.57-2.13,8.94,8.94,0,0,0,3.8-7.82A9.31,9.31,0,0,0,77.4,24.1"/><polygon class="cls-1" points="4.68 34.66 4.68 11.2 0 11.2 0 41.67 1.34 41.67 21.57 17.81 21.57 41.23 26.25 41.23 26.25 10.75 24.95 10.75 4.68 34.66"/><polygon class="cls-1" points="44.39 10.75 43.45 10.75 29.94 41.23 32.55 41.23 42.93 17.79 52.39 41.15 52.42 41.23 57.71 41.23 44.42 10.82 44.39 10.75"/><path class="cls-1" d="M261.8,7.6a16.41,16.41,0,0,0,11.36-4.38h0l-3-3.22c-2.34,3.65-5.75,5.71-9.67,5.71A12.23,12.23,0,0,1,257,5.19l-.11,0-.54,1.67.12,0a20,20,0,0,0,5.32.74"/><path class="cls-1" d="M131.87,24.23c.64-7.27,5-11.77,11.4-11.77,5.91,0,11.23,5.16,12.16,11.77Zm11.36-13.65c-9.11,0-16.52,7-16.52,15.64,0,9.5,6.82,15.64,17.37,15.64a19.07,19.07,0,0,0,13.85-5.69l0,0,.64-3.63h-.92l0,.05A16.27,16.27,0,0,1,144.07,40c-7.2,0-12.24-5.6-12.29-13.64h27.8v-.12c0-8.62-7.34-15.64-16.36-15.64"/><path class="cls-1" d="M263.48,10.58A20.39,20.39,0,0,0,253.41,13l-.12.07,1.53,1.83.09-.06a15.87,15.87,0,0,1,8.44-2.54c6.26,0,10.91,4.78,11.62,11.91H255.23v2.1h19.83c-.1,7.83-5,13.51-11.71,13.51A16.5,16.5,0,0,1,253,35.69l0,0h-1.07l1,3,0,0a17.85,17.85,0,0,0,10.27,3.18,17,17,0,0,0,12.06-4.42,15.43,15.43,0,0,0,4.56-11.31c0-8.86-7-15.55-16.35-15.55"/><polygon class="cls-1" points="228.68 13.3 237.48 13.3 237.48 41.23 242.16 41.23 242.16 13.3 250.97 13.3 250.97 11.2 228.68 11.2 228.68 13.3"/><path class="cls-1" d="M119.25,27.61a13.24,13.24,0,0,1-3.51,9.5,9.85,9.85,0,0,1-7.17,3h-.07c-6.2,0-10.63-5.17-10.76-12.5-.07-3.88,1.05-7.12,3.25-9.36a10.32,10.32,0,0,1,7.53-3h.08c5.21,0,10.53,3.84,10.66,12.41m4.25-.33V19.59a20.2,20.2,0,0,0-1.31-7.09C119.79,7,114.61,4,107.6,4A15.23,15.23,0,0,0,96.68,8.15l0,0-.56,2.91h1.24c3.24-4,6.05-5.38,10.55-5.38,6.9,0,10.91,4.44,11.32,12.5a14.08,14.08,0,0,0-10.55-4.81c-8.67,0-15.47,6.25-15.47,14.23S99.84,41.85,108,41.85a14.83,14.83,0,0,0,11.91-5.12,13.89,13.89,0,0,0,3.56-9.45"/><path class="cls-1" d="M222.49,36a11,11,0,0,1-7.59,4,13,13,0,0,1-1.32.07c-6.35,0-11.16-5.05-12-12.57a14.78,14.78,0,0,1,2.92-10.86,10.8,10.8,0,0,1,7.42-4.07,11.05,11.05,0,0,1,1.13-.06c6.26,0,11.38,5.28,12.16,12.56a14.72,14.72,0,0,1-2.75,11M213.25,10.7c-9.06,0-16.43,7-16.43,15.65S204.19,42,213.25,42s16.43-7,16.43-15.65S222.31,10.7,213.25,10.7"/><path class="cls-1" d="M190.12,31.55c0,4-1.85,8.24-7,8.24a11,11,0,0,1-3.74-.6l-.2-.07V24.34a9.62,9.62,0,0,1,3.95-.9c5.12,0,7,5,7,8.11m.78-7.45a10.31,10.31,0,0,0-6.5-2.27A11.64,11.64,0,0,0,179.15,23V13.3h13.43V11.2H174.47v30H179a21,21,0,0,0,3.76.27,13.62,13.62,0,0,0,7.57-2.13,8.94,8.94,0,0,0,3.8-7.82,9.31,9.31,0,0,0-3.23-7.45"/></g></g></g></svg>