<svg xmlns="http://www.w3.org/2000/svg" viewBox="0 0 18 18"><defs><style>.cls-1{fill:#fff;}</style></defs><title>Asset 7</title><g id="Layer_2" data-name="Layer 2"><g id="Layer_1-2" data-name="Layer 1"><g id="main_colored" data-name="main colored"><g id="footer"><path class="cls-1" d="M16,0H2A2,2,0,0,0,0,2V16a2,2,0,0,0,2,2H16a2,2,0,0,0,2-2V2A2,2,0,0,0,16,0ZM13.5,2A1.5,1.5,0,1,1,12,3.5,1.5,1.5,0,0,1,13.5,2ZM9,6.3A2.7,2.7,0,1,1,6.3,9,2.7,2.7,0,0,1,9,6.3Zm7.5,6.82a3.37,3.37,0,0,1-3.37,3.38H4.88A3.37,3.37,0,0,1,1.5,13.13V8H4.62a4.5,4.5,0,1,0,8.76,0H16.5Z"/></g></g></g></g></svg>