<svg xmlns="http://www.w3.org/2000/svg" viewBox="0 0 18 18"><defs><style>.cls-1{fill:#fff;}</style></defs><title>s-tw</title><g id="Layer_2" data-name="Layer 2"><g id="Layer_1-2" data-name="Layer 1"><g id="main_colored" data-name="main colored"><g id="footer"><path class="cls-1" d="M2,0H16a2,2,0,0,1,2,2V16a2,2,0,0,1-2,2H2a2,2,0,0,1-2-2V2A2,2,0,0,1,2,0M14.71,6.33A4.77,4.77,0,0,0,16,4.92a4.41,4.41,0,0,1-1.44.41,2.92,2.92,0,0,0,1.12-1.47A5.62,5.62,0,0,1,14,4.5a2.72,2.72,0,0,0-4.6,2.45A7.65,7.65,0,0,1,3.85,4.16a2.87,2.87,0,0,0,.79,3.58A2.94,2.94,0,0,1,3.5,7.41a2.68,2.68,0,0,0,2.08,2.68,3.35,3.35,0,0,1-1.14,0A2.67,2.67,0,0,0,6.9,12,5.38,5.38,0,0,1,3,13.08a7,7,0,0,0,4.28,1.23C11.69,14.11,14.64,10.95,14.71,6.33Z"/></g></g></g></g></svg>