<svg xmlns="http://www.w3.org/2000/svg" viewBox="0 0 18 18"><defs><style>.cls-1{fill:#fff;}</style></defs><title>Asset 11</title><g id="Layer_2" data-name="Layer 2"><g id="Layer_1-2" data-name="Layer 1"><g id="main_colored" data-name="main colored"><g id="footer"><path class="cls-1" d="M2,0H16a2,2,0,0,1,2,2V16a2,2,0,0,1-2,2H2a2,2,0,0,1-2-2V2A2,2,0,0,1,2,0M14.24,11c-1.18-1.09-1-.92.4-2.81.86-1.15,1.21-1.85,1.1-2.15S15,5.86,15,5.86l-2.11,0a.43.43,0,0,0-.27,0,.64.64,0,0,0-.19.23,13.26,13.26,0,0,1-.78,1.65c-.94,1.59-1.32,1.67-1.47,1.58-.35-.23-.27-.93-.27-1.43,0-1.54.24-2.19-.45-2.35a3.22,3.22,0,0,0-1-.1,4.64,4.64,0,0,0-1.75.18c-.22.12-.43.38-.31.39A1,1,0,0,1,7,6.39a2,2,0,0,1,.21.95s.12,1.82-.29,2.05-.68-.17-1.51-1.61a12.13,12.13,0,0,1-.76-1.56L4.5,6l-.31-.15h-2s-.3,0-.41.15,0,.32,0,.32A22.63,22.63,0,0,0,5.11,11.8a4.54,4.54,0,0,0,3.48,1.51h.84a.48.48,0,0,0,.38-.08.47.47,0,0,0,.12-.29s0-1.13.5-1.29,1.18,1.08,1.88,1.57a1.33,1.33,0,0,0,.93.28l1.88,0s1-.06.51-.83A6.08,6.08,0,0,0,14.24,11Z"/></g></g></g></g></svg>