<svg xmlns="http://www.w3.org/2000/svg" viewBox="0 0 29 28"><defs><style>.cls-1{fill:none;stroke:#000;stroke-miterlimit:10;stroke-width:2px;}</style></defs><title>shopcart-black</title><g id="Layer_2" data-name="Layer 2"><g id="Layer_1-2" data-name="Layer 1"><g id="корзина-1_2" data-name="корзина-1/2"><g id="bascket"><g id="bascket-2" data-name="bascket"><path d="M22,26a2,2,0,0,1-2,2H9a2,2,0,0,1-2-2H7a2,2,0,0,1,2-2H20a2,2,0,0,1,2,2Z"/><path d="M26,20a2,2,0,0,1-2,2H5a2,2,0,0,1-2-2H3a2,2,0,0,1,2-2H24a2,2,0,0,1,2,2Z"/><path d="M29,14a2,2,0,0,1-2,2H2a2,2,0,0,1-2-2H0a2,2,0,0,1,2-2H27a2,2,0,0,1,2,2Z"/><path class="cls-1" d="M3,12S5.5,1,14.5,1,26,12,26,12"/></g></g></g></g></g></svg>