<svg xmlns="http://www.w3.org/2000/svg" viewBox="0 0 29 28"><defs><style>.cls-1{fill:#fff;}</style></defs><title>basket normal</title><g id="Layer_2" data-name="Layer 2"><g id="Layer_1-2" data-name="Layer 1"><g id="bascet"><path class="cls-1" d="M22,26a2,2,0,0,1-2,2H9a2,2,0,0,1-2-2H7a2,2,0,0,1,2-2H20a2,2,0,0,1,2,2Z"/><path class="cls-1" d="M26,20a2,2,0,0,1-2,2H5a2,2,0,0,1-2-2H3a2,2,0,0,1,2-2H24a2,2,0,0,1,2,2Z"/><path class="cls-1" d="M29,14a2,2,0,0,1-2,2H2a2,2,0,0,1-2-2H0a2,2,0,0,1,2-2H27a2,2,0,0,1,2,2Z"/><path class="cls-1" d="M25,12.22C24.93,11.81,22.58,2,14.5,2S4.07,11.81,4,12.22l-2-.44C2.05,11.66,4.81,0,14.5,0S26.95,11.66,27,11.78Z"/></g></g></g></svg>